<svg height="256" preserveAspectRatio="xMidYMid" viewBox="0 0 256 256" width="256" xmlns="http://www.w3.org/2000/svg" xmlns:xlink="http://www.w3.org/1999/xlink"><radialGradient id="a" cx="50%" cy="-50%" r="99.999879%"><stop offset="0" stop-color="#20c6b7"/><stop offset="1" stop-color="#4d9abf"/></radialGradient><path d="m185.531657 88.8386745-.093574-.0400593c-.053472-.0200296-.106943-.0400593-.15373-.0867952-.155431-.1667674-.22457-.3961529-.187149-.6209195l5.166653-31.5533925 24.229133 24.2091835-25.198298 10.7091921c-.070028.0282079-.145083.0418393-.220569.0400593h-.100258c-.03342-.0200297-.066839-.0467359-.133678-.1135014-.937757-1.0429748-2.059176-1.905179-3.30853-2.543767zm35.143939-1.9228474 25.906791 25.8783219c5.380538 5.381302 8.074149 8.065277 9.056682 11.176551.147046.460682.267356.921364.360931 1.3954l-61.912953-26.1921204c-.03327-.0137231-.066691-.027077-.100258-.0400593-.247304-.1001483-.534712-.2136497-.534712-.4673588 0-.253709.294092-.373887.541396-.4740353l.080207-.0333828zm34.268348 46.7559049c-1.33678 2.510385-3.9435 5.11424-8.354873 9.527442l-29.208637 29.169863-37.777395-7.858303-.200517-.04006c-.334195-.053412-.688441-.113501-.688441-.413946-.290022-3.146721-1.875704-6.031666-4.377954-7.965129-.15373-.15356-.113626-.393916-.066839-.614242 0-.033383 0-.066766.013368-.093472l7.104984-43.571189.026736-.146885c.040103-.333827.100258-.721067.401034-.721067 3.075688-.382197 5.86902-1.981788 7.753322-4.439908.060155-.066766.100258-.140208.180465-.180267.213885-.100149.467873 0 .688442.093471l64.499621 27.253692zm-44.280828 45.407242-48.030495 47.977714 8.221195-50.474745.013368-.066766c.006684-.066765.020051-.133531.040103-.19362.066839-.160237.24062-.227003.407718-.293768l.080207-.033383c1.800079-.767172 3.392152-1.95019 4.645309-3.451778.160414-.186944.354247-.367211.601551-.400594.064186-.010466.129647-.010466.193833 0l33.820527 6.943616zm-58.196705 58.132752-5.413958 5.408009-59.854312-86.407958c-.0216444-.031605-.0439287-.062769-.0668389-.093471-.0935746-.126855-.1938331-.253709-.1737814-.400594.0066839-.106824.0735229-.200296.1470458-.280415l.0668389-.086795c.1804653-.267062.334195-.534124.5012924-.821216l.133678-.233679.0200517-.02003c.0935746-.160237.1804653-.313798.3408788-.400593.1403619-.066766.334195-.04006.4879246-.006677l66.3109581 13.660229c.185413.028801.36032.104664.507976.220326.086891.086795.106943.180267.126994.287092.937622 3.54365 3.479526 6.445843 6.871048 7.844951.187149.093471.106942.300444.020052.520771-.043352.096563-.076939.197211-.100259.300445-.835487 5.07418-8.000626 48.725488-9.925589 60.509605zm-11.309157 11.290053c-3.990287 3.945843-6.343019 6.035604-9.003211 6.87685-2.622922.828495-5.43786.828495-8.060782 0-3.114696-.98813-5.808308-3.672105-11.188846-9.053407l-60.1083-60.042247 15.7004778-24.322685c.0735229-.120178.1470457-.227003.2673559-.313798.1670975-.120178.4077178-.066765.6082348 0 3.6036938 1.086017 7.4728896.890175 10.9482259-.554154.1804653-.066765.3609305-.113501.5012924.013353.0701893.063998.1329654.135663.1871491.21365l60.1484031 87.189114zm-94.1560791-68.007376-13.7888828-13.77373 27.2302029-11.60385c.0696026-.030318.1446384-.046217.2205686-.046736.2272526 0 .3609306.227003.4812407.433976.2736522.420545.563505.830347.8689068 1.228486l.0868907.106825c.0802068.113501.0267356.227002-.0534712.333827l-15.0387718 23.321202zm-19.8912822-19.869424-17.44497533-17.425805c-2.96765098-2.964389-5.11986633-5.11424-6.61705961-6.963645l53.04341924 10.989607c.0666318.012336.1334818.023465.2005169.033383.3275111.053412.6884416.113501.6884416.420623 0 .333828-.39435.487388-.7285449.614243l-.1537297.066765zm-27.1098927-33.349385c.06045022-1.122533.26256597-2.232948.60155087-3.304894.989217-3.111274 3.67614423-5.795249 9.0633665-11.176551l22.32422133-22.2996891c10.2787207 14.9012651 20.5853103 29.7833291 30.9197149 44.6461141.1804652.240356.3809822.507418.1737813.707715-.9758492 1.074925-1.9516984 2.249998-2.6401399 3.52522-.0746856.163916-.1896459.30631-.334195.413946-.0868906.053413-.1804652.033383-.2807237.013354h-.0133678l-59.8142085-12.531892zm37.964544-42.7499731 30.0173886-29.9844025c2.8206052 1.2351625 13.0870734 5.5682458 22.2707501 9.4406469 6.9512545 2.9376836 13.2875903 5.6083051 15.2793923 6.476257.200517.0801187.380982.1602373.467873.3605339.053471.120178.026735.2737387 0 .4005933-.965216 4.3966452.348514 8.9833749 3.495679 12.20474.200517.2002966 0 .4873885-.173782.7344209l-.093574.1402077-30.4785778 47.1564989c-.0802068.133531-.1537296.247032-.2874076.333827-.1604136.100149-.3876661.053413-.5748153.006677-1.1854232-.310234-2.4040559-.476127-3.6293569-.494065-1.0961594 0-2.2858934.200296-3.4889951.420623h-.0066839c-.133678.020029-.2539881.046736-.3609305-.033383-.1181153-.096422-.2197059-.211431-.3007755-.340504zm36.0796846-36.0400366 38.8601864-38.81748296c5.380538-5.37462569 8.07415-8.06527682 11.188846-9.0467302 2.622922-.82849485 5.43786-.82849485 8.060782 0 3.114697.98145338 5.808308 3.67210451 11.188846 9.0467302l8.421712 8.41245756-27.63792 42.7566496c-.068372.1244715-.161653.2335584-.27404.3204746-.167098.1135014-.401034.0667655-.601551 0-4.42377-1.3410118-9.225007-.4167902-12.833085 2.4703249-.180466.1869435-.447821.0801186-.675074-.0200297-3.609305-1.5689901-31.6816793-13.4198728-35.6987024-15.122394zm83.5888354-24.5430113 25.519125 25.4910819-6.149186 38.0430027v.1001483c-.005491.0867018-.023501.1721554-.053472.253709-.066839.1335311-.200517.1602373-.334195.2002967-1.314728.3977991-2.552979 1.0139869-3.662776 1.8226991-.047712.0339646-.092434.0719363-.133678.1135014-.073523.0801187-.147046.1535608-.267356.1669139-.097919.003022-.195504-.0128464-.287408-.0467359l-38.886922-16.5044406-.073522-.0333828c-.247305-.1001483-.541396-.2203263-.541396-.4740353-.228568-2.1646439-.936331-4.2513918-2.072009-6.1090466-.187149-.3071215-.39435-.6275961-.233936-.9413941zm-26.281089 57.4584208 36.453983 15.4228389c.200517.0934718.421086.180267.507976.3872401.034785.1244752.034785.2560885 0 .3805636-.106942.5341243-.200517 1.1416907-.200517 1.7559336v1.021513c0 .253709-.260672.360534-.501292.460682l-.073523.026706c-5.774888 2.463648-81.0756898 34.537812-81.1893161 34.537812s-.2339364 0-.3475627-.113501c-.200517-.200297 0-.480712.1804653-.734421.0319052-.044007.0631007-.088523.0935745-.133531l29.957234-46.3352826.053471-.0801186c.173781-.2804153.374298-.5942133.695125-.5942133l.300776.0467359c.681757.0934717 1.283308.1802669 1.891543.1802669 4.545051 0 8.755907-2.2099392 11.295789-5.9888686.060514-.1009118.137298-.1911469.227252-.2670621.180465-.1335311.447821-.0667656.655022.0267062zm-41.7476305 61.3241452 82.0782745-34.965111s.12031 0 .233937.113501c.447821.447329.828803.747774 1.196418 1.028189l.180465.113502c.167097.093471.334195.200296.347563.373887 0 .066765 0 .106825-.013368.166914l-7.031462 43.143889-.026735.173591c-.046787.333827-.093575.714391-.407718.714391-3.805852.256603-7.239788 2.372661-9.176993 5.655041l-.033419.053412c-.093575.153561-.180466.300445-.334195.380564-.140362.066765-.320827.040059-.467873.006676l-65.455419-13.486638c-.066839-.013353-1.0159526-3.465131-1.0894755-3.471808z" fill="url(#a)"/></svg>